M48
; DRILL file {KiCad 5.1.2} date Wed 29 May 2019 03:55:24 PM CDT
; FORMAT={-:-/ absolute / inch / decimal}
; #@! TF.CreationDate,2019-05-29T15:55:24-05:00
; #@! TF.GenerationSoftware,Kicad,Pcbnew,5.1.2
FMAT,2
INCH
T1C0.0157
T2C0.0433
T3C0.0472
T4C0.2165
%
G90
G05
T1
X6.8702Y-2.438
T2
X5.933Y-1.983
X5.933Y-2.583
X6.033Y-1.983
X6.033Y-2.583
X6.133Y-1.983
X6.133Y-2.583
X6.233Y-1.983
X6.233Y-2.583
X6.333Y-1.983
X6.333Y-2.583
X6.433Y-1.983
X6.433Y-2.583
X6.533Y-1.983
X6.533Y-2.583
X6.633Y-1.983
X6.633Y-2.583
X6.733Y-1.983
X6.733Y-2.583
X6.833Y-1.983
X6.833Y-2.583
X6.933Y-1.983
X6.933Y-2.583
X7.033Y-1.983
X7.033Y-2.583
X7.133Y-1.983
X7.133Y-2.583
X7.233Y-1.983
X7.233Y-2.083
X7.233Y-2.183
X7.233Y-2.283
X7.233Y-2.383
X7.233Y-2.483
X7.233Y-2.583
T3
X7.48Y-2.2669
X7.48Y-2.3669
X7.48Y-2.4669
X7.48Y-2.5669
X7.48Y-2.6669
X7.4803Y-1.9551
X7.4803Y-2.0551
X7.48Y-1.7087
X7.48Y-1.8087
T4
X6.0472Y-2.8031
X6.0472Y-1.7638
X7.126Y-2.8031
T0
M30
